<svg xmlns="http://www.w3.org/2000/svg" style="display:none" aria-hidden="true"><symbol id="icon-new" viewBox="0 0 24 24"><path d="M6 2 H14 L20 8 V22 H6 Z" fill="#FAFAFA" stroke="#37474F" stroke-width="1.5"/><path d="M14 2 V8 H20" stroke="#37474F" stroke-width="1.5"/><circle cx="17.5" cy="17.5" r="4.5" fill="#43A047"/><path d="M17.5 15.3 V19.7 M15.3 17.5 H19.7" stroke="#FFFFFF" stroke-width="1.6"/></symbol><symbol id="icon-open" viewBox="0 0 24 24"><path d="M2.5 7 H9 L11 9 H21 V19 H2.5 Z" fill="#FBC02D" stroke="#37474F" stroke-width="1.5"/><path d="M4.5 19 L7 11 H22 L19.5 19 Z" fill="#FFE082" stroke="#37474F" stroke-width="1.5"/></symbol><symbol id="icon-save" viewBox="0 0 24 24"><path d="M4 3 H18 L21 6 V21 H4 Z" fill="#2196F3" stroke="#37474F" stroke-width="1.5"/><rect x="7" y="3" width="9" height="6" fill="#FAFAFA" stroke="#37474F" stroke-width="1.5"/><rect x="13" y="4.5" width="2" height="3" fill="#37474F"/><rect x="7" y="13" width="11" height="8" fill="#FAFAFA" stroke="#37474F" stroke-width="1.5"/><path d="M9 16 H16 M9 18.5 H14" stroke="#37474F" stroke-width="1.2"/></symbol><symbol id="icon-save-all" viewBox="0 0 24 24"><path d="M2 6 H14 L17 9 V19 H2 Z" fill="#90A4AE" stroke="#37474F" stroke-width="1.4"/><path d="M7 9 H19 L22 12 V22 H7 Z" fill="#2196F3" stroke="#37474F" stroke-width="1.5"/><rect x="10" y="9" width="7" height="4.5" fill="#FAFAFA" stroke="#37474F" stroke-width="1.4"/><rect x="14.5" y="10" width="1.5" height="2.5" fill="#37474F"/><rect x="10" y="16" width="9" height="6" fill="#FAFAFA" stroke="#37474F" stroke-width="1.4"/></symbol><symbol id="icon-close" viewBox="0 0 24 24"><path d="M6 2 H14 L20 8 V22 H6 Z" fill="#FAFAFA" stroke="#37474F" stroke-width="1.5"/><path d="M14 2 V8 H20" stroke="#37474F" stroke-width="1.5"/><circle cx="17.5" cy="17.5" r="4.5" fill="#E53935"/><path d="M15.7 15.7 L19.3 19.3 M19.3 15.7 L15.7 19.3" stroke="#FFFFFF" stroke-width="1.6"/></symbol><symbol id="icon-close-all" viewBox="0 0 24 24"><path d="M3 4 H10 L15 9 V18 H3 Z" fill="#90A4AE" stroke="#37474F" stroke-width="1.4"/><path d="M10 4 V9 H15" stroke="#37474F" stroke-width="1.4"/><path d="M8 8 H15 L20 13 V22 H8 Z" fill="#FAFAFA" stroke="#37474F" stroke-width="1.5"/><path d="M15 8 V13 H20" stroke="#37474F" stroke-width="1.5"/><circle cx="17" cy="18" r="3.5" fill="#E53935"/><path d="M15.5 16.5 L18.5 19.5 M18.5 16.5 L15.5 19.5" stroke="#FFFFFF" stroke-width="1.4"/></symbol><symbol id="icon-print" viewBox="0 0 24 24"><path d="M7 3 H17 V8 H7 Z" fill="#FAFAFA" stroke="#37474F" stroke-width="1.5"/><path d="M3 8 H21 V17 H17 V21 H7 V17 H3 Z" fill="#90A4AE" stroke="#37474F" stroke-width="1.5"/><rect x="7" y="13" width="10" height="8" fill="#FAFAFA" stroke="#37474F" stroke-width="1.5"/><path d="M9 16 H15 M9 18.5 H14" stroke="#37474F" stroke-width="1.2"/><circle cx="18" cy="11" r="0.9" fill="#43A047"/></symbol><symbol id="icon-cut" viewBox="0 0 24 24"><path d="M14 12 L21 4 M14 12 L21 20" stroke="#37474F" stroke-width="1.5"/><circle cx="7" cy="7.5" r="3.2" fill="#FAFAFA" stroke="#37474F" stroke-width="1.5"/><circle cx="7" cy="16.5" r="3.2" fill="#FAFAFA" stroke="#37474F" stroke-width="1.5"/><path d="M9.4 9.6 L21 20 M9.4 14.4 L21 4" stroke="#37474F" stroke-width="1.5" fill="none"/></symbol><symbol id="icon-copy" viewBox="0 0 24 24"><path d="M3 6 H11 L14 9 V18 H3 Z" fill="#FAFAFA" stroke="#37474F" stroke-width="1.5"/><path d="M11 6 V9 H14" stroke="#37474F" stroke-width="1.5"/><path d="M9 3 H17 L21 7 V21 H9 Z" fill="#2196F3" stroke="#37474F" stroke-width="1.5"/><path d="M17 3 V7 H21" stroke="#37474F" stroke-width="1.5"/><path d="M12 12 H18 M12 15 H17 M12 18 H16" stroke="#FFFFFF" stroke-width="1.2"/></symbol><symbol id="icon-paste" viewBox="0 0 24 24"><path d="M5 5 H19 V22 H5 Z" fill="#FB8C00" stroke="#37474F" stroke-width="1.5"/><path d="M9 3 H15 V7 H9 Z" fill="#37474F"/><path d="M8 10 H14 L17 13 V20 H8 Z" fill="#FAFAFA" stroke="#37474F" stroke-width="1.4"/><path d="M14 10 V13 H17" stroke="#37474F" stroke-width="1.4"/><path d="M10 15 H15 M10 17.5 H14" stroke="#37474F" stroke-width="1.1"/></symbol><symbol id="icon-undo" viewBox="0 0 24 24"><path d="M10 13 Q14 3 21 8" stroke="#2196F3" stroke-width="2.8" fill="none" stroke-linecap="round"/><path d="M2 13 L10 7 L10 19 Z" fill="#2196F3"/></symbol><symbol id="icon-redo" viewBox="0 0 24 24"><path d="M14 13 Q10 3 3 8" stroke="#2196F3" stroke-width="2.8" fill="none" stroke-linecap="round"/><path d="M22 13 L14 7 L14 19 Z" fill="#2196F3"/></symbol><symbol id="icon-find" viewBox="0 0 24 24"><circle cx="10.5" cy="10.5" r="6" fill="#FAFAFA" stroke="#37474F" stroke-width="1.8"/><path d="M15 15 L21 21" stroke="#37474F" stroke-width="2.2"/><path d="M7.5 9 A3.5 3.5 0 0 1 10.5 7" fill="none" stroke="#2196F3" stroke-width="1.4"/></symbol><symbol id="icon-find-next" viewBox="0 0 24 24"><circle cx="10.5" cy="10.5" r="6" fill="#FAFAFA" stroke="#37474F" stroke-width="1.8"/><path d="M15 15 L21 21" stroke="#37474F" stroke-width="2.2"/><path d="M8 10.5 H13 M11 8.5 L13 10.5 L11 12.5" stroke="#43A047" stroke-width="1.6" fill="none"/></symbol><symbol id="icon-replace" viewBox="0 0 24 24"><circle cx="10.5" cy="10.5" r="6" fill="#FAFAFA" stroke="#37474F" stroke-width="1.8"/><path d="M15 15 L21 21" stroke="#37474F" stroke-width="2.2"/><path d="M8 9.2 H12.5 M11 7.8 L12.5 9.2 L11 10.6" stroke="#2196F3" stroke-width="1.4" fill="none"/><path d="M13 11.8 H8.5 M10 10.4 L8.5 11.8 L10 13.2" stroke="#FB8C00" stroke-width="1.4" fill="none"/></symbol><symbol id="icon-zoom-in" viewBox="0 0 24 24"><circle cx="10.5" cy="10.5" r="6" fill="#FAFAFA" stroke="#37474F" stroke-width="1.8"/><path d="M15 15 L21 21" stroke="#37474F" stroke-width="2.2"/><path d="M10.5 7.5 V13.5 M7.5 10.5 H13.5" stroke="#43A047" stroke-width="1.8"/></symbol><symbol id="icon-zoom-out" viewBox="0 0 24 24"><circle cx="10.5" cy="10.5" r="6" fill="#FAFAFA" stroke="#37474F" stroke-width="1.8"/><path d="M15 15 L21 21" stroke="#37474F" stroke-width="2.2"/><path d="M7.5 10.5 H13.5" stroke="#E53935" stroke-width="1.8"/></symbol><symbol id="icon-word-wrap" viewBox="0 0 24 24"><path d="M3 6 H21" stroke="#37474F" stroke-width="1.6"/><path d="M3 12 H17 A3 3 0 0 1 17 18 H13" stroke="#2196F3" stroke-width="1.6" fill="none"/><path d="M15 16 L13 18 L15 20" stroke="#2196F3" stroke-width="1.6" fill="none"/><path d="M3 18 H10" stroke="#37474F" stroke-width="1.6"/></symbol><symbol id="icon-show-whitespace" viewBox="0 0 24 24"><path d="M16 4 H10 A4 4 0 0 0 10 12 H12 V20" fill="none" stroke="#37474F" stroke-width="1.8"/><path d="M16 4 V20" stroke="#37474F" stroke-width="1.8"/><circle cx="6" cy="14" r="0.9" fill="#90A4AE"/><circle cx="6" cy="18" r="0.9" fill="#90A4AE"/></symbol><symbol id="icon-macro-record" viewBox="0 0 24 24"><circle cx="12" cy="12" r="6.5" fill="#E53935" stroke="#37474F" stroke-width="1.5"/><circle cx="12" cy="12" r="2.5" fill="#FFFFFF" opacity="0.85"/></symbol><symbol id="icon-macro-play" viewBox="0 0 24 24"><path d="M7 4 L20 12 L7 20 Z" fill="#43A047" stroke="#37474F" stroke-width="1.5" stroke-linejoin="round"/></symbol><symbol id="icon-macro-stop" viewBox="0 0 24 24"><rect x="5" y="5" width="14" height="14" rx="1.5" fill="#E53935" stroke="#37474F" stroke-width="1.5"/></symbol><symbol id="icon-macro-pause" viewBox="0 0 24 24"><rect x="6" y="4" width="4" height="16" rx="1" fill="#FB8C00" stroke="#37474F" stroke-width="1.5"/><rect x="14" y="4" width="4" height="16" rx="1" fill="#FB8C00" stroke="#37474F" stroke-width="1.5"/></symbol><symbol id="icon-run" viewBox="0 0 24 24"><path d="M13 2 L4 14 H11 L9 22 L20 9 H13 Z" fill="#FBC02D" stroke="#37474F" stroke-width="1.5" stroke-linejoin="round"/></symbol><symbol id="icon-sync-scroll-vertical" viewBox="0 0 24 24"><rect x="2" y="2" width="18" height="15" rx="1" fill="#FAFAFA" stroke="#37474F" stroke-width="1.4"/><path d="M2 4.8 H20" stroke="#37474F" stroke-width="1.4"/><circle cx="3.4" cy="3.4" r="0.5" fill="#90A4AE"/><circle cx="4.8" cy="3.4" r="0.5" fill="#90A4AE"/><circle cx="6.2" cy="3.4" r="0.5" fill="#90A4AE"/><line x1="11" y1="6" x2="11" y2="16" stroke="#2196F3" stroke-width="1.6" stroke-dasharray="2 1.5"/><path d="M17 17 V15.5 A1.5 1.5 0 0 1 20 15.5 V17" fill="none" stroke="#37474F" stroke-width="1.2"/><rect x="16" y="17" width="5" height="4" rx="0.5" fill="#FBC02D" stroke="#37474F" stroke-width="1.2"/></symbol><symbol id="icon-sync-scroll-horizontal" viewBox="0 0 24 24"><rect x="2" y="2" width="18" height="15" rx="1" fill="#FAFAFA" stroke="#37474F" stroke-width="1.4"/><path d="M2 4.8 H20" stroke="#37474F" stroke-width="1.4"/><circle cx="3.4" cy="3.4" r="0.5" fill="#90A4AE"/><circle cx="4.8" cy="3.4" r="0.5" fill="#90A4AE"/><circle cx="6.2" cy="3.4" r="0.5" fill="#90A4AE"/><line x1="3" y1="11" x2="19" y2="11" stroke="#2196F3" stroke-width="1.6" stroke-dasharray="2 1.5"/><path d="M17 17 V15.5 A1.5 1.5 0 0 1 20 15.5 V17" fill="none" stroke="#37474F" stroke-width="1.2"/><rect x="16" y="17" width="5" height="4" rx="0.5" fill="#FBC02D" stroke="#37474F" stroke-width="1.2"/></symbol><symbol id="icon-show-all-chars" viewBox="0 0 24 24"><path d="M17 4 H10 A4 4 0 0 0 10 12 H12 V20" fill="none" stroke="#37474F" stroke-width="2.4" stroke-linecap="round"/><path d="M17 4 V20" stroke="#37474F" stroke-width="2.4" stroke-linecap="round"/></symbol><symbol id="icon-show-indent-guide" viewBox="0 0 24 24"><path d="M3 5 H20" stroke="#37474F" stroke-width="1.5" stroke-linecap="round"/><path d="M7 9 H18" stroke="#37474F" stroke-width="1.5" stroke-linecap="round"/><path d="M11 13 H19" stroke="#37474F" stroke-width="1.5" stroke-linecap="round"/><path d="M7 17 H17" stroke="#37474F" stroke-width="1.5" stroke-linecap="round"/><path d="M3 21 H15" stroke="#37474F" stroke-width="1.5" stroke-linecap="round"/><path d="M7 6.5 V19.5" stroke="#E53935" stroke-width="1.2" stroke-dasharray="1.5 1"/><path d="M11 10.5 V15.5" stroke="#E53935" stroke-width="1.2" stroke-dasharray="1.5 1"/></symbol><symbol id="icon-define-language" viewBox="0 0 24 24"><rect x="2" y="3" width="20" height="18" rx="1" fill="#FAFAFA" stroke="#37474F" stroke-width="1.4"/><path d="M2 6 H22" stroke="#37474F" stroke-width="1.4"/><circle cx="3.4" cy="4.5" r="0.5" fill="#90A4AE"/><circle cx="4.8" cy="4.5" r="0.5" fill="#90A4AE"/><circle cx="6.2" cy="4.5" r="0.5" fill="#90A4AE"/><path d="M5 10 H13 M5 13 H16 M5 16 H10" stroke="#90A4AE" stroke-width="1"/><path d="M15 6 L8 14 H12 L10 21 L18 12 H13.5 Z" fill="#FBC02D" stroke="#37474F" stroke-width="1.4" stroke-linejoin="round"/></symbol><symbol id="icon-document-map" viewBox="0 0 24 24"><path d="M2 6 L9 4 L16 6 L22 4 V18 L16 20 L9 18 L2 20 Z" fill="#FAFAFA" stroke="#37474F" stroke-width="1.5" stroke-linejoin="round"/><path d="M9 4 V18 M16 6 V20" stroke="#37474F" stroke-width="1.2" stroke-dasharray="1.5 1"/><path d="M5 14 Q11 9 18 12" fill="none" stroke="#E53935" stroke-width="1.4" stroke-linecap="round"/><circle cx="18" cy="12" r="1.4" fill="#E53935" stroke="#37474F" stroke-width="0.8"/></symbol><symbol id="icon-document-list" viewBox="0 0 24 24"><rect x="1.5" y="2.5" width="21" height="19" rx="1.2" fill="none" stroke="#90A4AE" stroke-width="1.2"/><line x1="1.5" y1="5.5" x2="22.5" y2="5.5" stroke="#90A4AE" stroke-width="1.2"/><path d="M5 8 H10 L13 11 V19 H5 Z" fill="#FAFAFA" stroke="#37474F" stroke-width="1.3"/><path d="M8 10 H13 L16 13 V21 H8 Z" fill="#FAFAFA" stroke="#37474F" stroke-width="1.3"/><path d="M11 7 H17 L20 10 V18 H11 Z" fill="#2196F3" stroke="#37474F" stroke-width="1.3"/><path d="M17 7 V10 H20" stroke="#37474F" stroke-width="1.3"/><path d="M13 12.5 H18 M13 14.5 H17 M13 16.5 H16" stroke="#FFFFFF" stroke-width="1"/></symbol><symbol id="icon-function-list" viewBox="0 0 24 24"><path d="M5 3 H14 L19 8 V21 H5 Z" fill="#FAFAFA" stroke="#37474F" stroke-width="1.5"/><path d="M14 3 V8 H19" stroke="#37474F" stroke-width="1.5"/><path d="M15 9 C13.5 9 12.5 9.5 12 11.5 L9 20 C8.5 21.5 7.5 22 6 21" fill="none" stroke="#FB8C00" stroke-width="2.6" stroke-linecap="round" stroke-linejoin="round"/><path d="M9 13.5 H13.5" stroke="#FB8C00" stroke-width="2.4" stroke-linecap="round"/></symbol><symbol id="icon-folder-workspace" viewBox="0 0 24 24"><path d="M2.5 7 H9 L11 9 H21 V19 H2.5 Z" fill="#EF5350" stroke="#37474F" stroke-width="1.5" stroke-linejoin="round"/><path d="M2.5 9.8 H21" stroke="#37474F" stroke-width="1.1"/><path d="M3.5 11.2 H20" stroke="#FFFFFF" stroke-width="0.8" opacity="0.5"/></symbol><symbol id="icon-monitoring" viewBox="0 0 24 24"><path d="M2 12 Q12 4 22 12 Q12 20 2 12 Z" fill="#FAFAFA" stroke="#37474F" stroke-width="1.6" stroke-linejoin="round"/><circle cx="12" cy="12" r="4" fill="#2196F3" stroke="#37474F" stroke-width="1.4"/><circle cx="12" cy="12" r="1.8" fill="#37474F"/><circle cx="13.3" cy="10.7" r="0.8" fill="#FFFFFF"/></symbol><symbol id="icon-save-macro" viewBox="0 0 24 24"><rect x="1" y="2" width="17" height="16" rx="1" fill="#FAFAFA" stroke="#37474F" stroke-width="1.3"/><path d="M1 4.5 H18" stroke="#37474F" stroke-width="1.3"/><circle cx="2.6" cy="3.25" r="0.4" fill="#90A4AE"/><circle cx="4" cy="3.25" r="0.4" fill="#90A4AE"/><circle cx="5.4" cy="3.25" r="0.4" fill="#90A4AE"/><path d="M3 7 H11 M3 9 H14 M3 11 H9 M3 13 H12 M3 15 H10" stroke="#90A4AE" stroke-width="0.9"/><path d="M9 10 H19 L22 13 V22 H9 Z" fill="#2196F3" stroke="#37474F" stroke-width="1.4"/><rect x="11" y="10" width="7" height="3.5" fill="#FAFAFA" stroke="#37474F" stroke-width="1.1"/><rect x="15" y="10.7" width="1.5" height="2.3" fill="#37474F"/><rect x="11" y="16" width="9" height="6" fill="#FAFAFA" stroke="#37474F" stroke-width="1.1"/><path d="M12.5 18 H18.5 M12.5 20 H17" stroke="#37474F" stroke-width="0.9"/></symbol></svg>
